# Blender 5.0.0
# www.blender.org
mtllib carrier-ship.mtl
o Sphere
v 0.006473 0.756593 -0.000000
v 0.006473 0.709778 -0.312891
v 0.000000 0.000000 -1.000000
v 0.000000 -0.469315 -0.707107
v 0.000000 -0.762208 0.000000
v 0.593841 0.513235 -0.500000
v 0.699728 0.000000 -0.695847
v 0.500000 -0.469315 -0.500000
v 0.800948 0.513235 0.000000
v 0.993637 0.000000 0.003080
v 0.707107 -0.469315 0.000000
v 0.593841 0.513235 0.500000
v 0.715891 0.000000 0.708403
v 0.500000 -0.469315 0.500000
v 0.006473 0.709778 0.312891
v 0.002747 0.000000 1.005970
v 0.000000 -0.469315 0.707107
v -0.561531 0.615356 0.163633
v -1.225014 0.000000 0.710739
v -1.025957 -0.469315 0.500000
v -0.768638 0.615356 0.000000
v -1.514652 0.000000 0.001528
v -1.233064 -0.469315 0.000000
v -0.561531 0.615356 -0.163633
v -1.233064 0.000000 -0.707107
v -1.025957 -0.469315 -0.500000
vn 0.3417 -0.4902 -0.8018
vn 0.2730 0.9514 -0.1424
vn 0.1566 -0.9125 -0.3780
vn 0.3659 0.3967 -0.8418
vn 0.8060 -0.4867 -0.3368
vn 0.2907 0.9492 -0.1204
vn 0.3780 -0.9125 -0.1566
vn 0.8734 0.3226 -0.3650
vn 0.8023 -0.5022 0.3227
vn 0.2907 0.9492 0.1204
vn 0.3780 -0.9125 0.1566
vn 0.8725 0.3399 0.3510
vn 0.3310 -0.5072 0.7957
vn 0.2730 0.9514 0.1424
vn 0.1566 -0.9125 0.3780
vn 0.3490 0.4226 0.8364
vn -0.1886 -0.4987 0.8460
vn -0.0000 1.0000 -0.0000
vn -0.0770 -0.9211 0.3815
vn -0.2301 -0.9685 0.0953
vn -0.5521 0.7723 0.3142
vn -0.8072 -0.4883 0.3316
vn -0.2301 -0.9685 -0.0953
vn -0.5530 0.7734 -0.3098
vn -0.8072 -0.4918 -0.3264
vn -0.1891 0.9658 0.1771
vn -0.0770 -0.9211 -0.3815
vn -0.1891 0.9658 -0.1771
vn -0.1879 -0.4938 -0.8491
vn 0.0058 0.6986 0.7155
vn 0.0038 0.6955 -0.7185
vt 0.750000 0.250000
vt 0.750000 0.500000
vt 0.625000 0.500000
vt 0.625000 0.250000
vt 0.750000 0.750000
vt 0.687500 1.000000
vt 0.625000 0.750000
vt 0.687500 0.000000
vt 0.500000 0.500000
vt 0.500000 0.250000
vt 0.562500 1.000000
vt 0.500000 0.750000
vt 0.562500 0.000000
vt 0.375000 0.500000
vt 0.375000 0.250000
vt 0.437500 1.000000
vt 0.375000 0.750000
vt 0.437500 0.000000
vt 0.250000 0.500000
vt 0.250000 0.250000
vt 0.312500 1.000000
vt 0.250000 0.750000
vt 0.312500 0.000000
vt 0.125000 0.500000
vt 0.125000 0.250000
vt 0.875000 0.500000
vt 0.187500 0.000000
vt 0.062500 0.000000
vt 0.000000 0.250000
vt 0.125000 0.750000
vt 0.000000 0.750000
vt 0.000000 0.500000
vt 0.937500 0.000000
vt 1.000000 0.250000
vt 0.875000 0.250000
vt 1.000000 0.500000
vt 1.000000 0.750000
vt 0.875000 0.750000
vt 0.062500 1.000000
vt 0.812500 0.000000
vt 0.812500 1.000000
s 0
usemtl Material
f 4/1/1 3/2/1 7/3/1 8/4/1
f 2/5/2 1/6/2 6/7/2
f 5/8/3 4/1/3 8/4/3
f 3/2/4 6/7/4 7/3/4
f 8/4/5 7/3/5 10/9/5 11/10/5
f 5/13/7 8/4/7 11/10/7
f 11/10/9 10/9/9 13/14/9 14/15/9
f 5/18/11 11/10/11 14/15/11
f 14/15/13 13/14/13 16/19/13 17/20/13
f 12/17/14 1/21/14 15/22/14
f 5/23/15 14/15/15 17/20/15
f 13/14/16 12/17/16 16/19/16
f 17/20/17 16/19/17 19/24/17 20/25/17
f 5/27/19 17/20/19 20/25/19
f 5/28/20 20/25/20 23/29/20
f 19/24/21 18/30/21 21/31/21 22/32/21
f 20/25/22 19/24/22 22/32/22 23/29/22
f 5/33/23 23/34/23 26/35/23
f 22/36/24 21/37/24 24/38/24 25/26/24
f 23/34/25 22/36/25 25/26/25 26/35/25
f 1/39/26 21/31/26 18/30/26 15/22/26
f 5/40/27 26/35/27 4/1/27
f 1/41/28 2/5/28 24/38/28 21/37/28
f 26/35/29 25/26/29 3/2/29 4/1/29
f 16/19/30 12/17/30 15/22/30
f 6/7/31 3/2/31 2/5/31
usemtl Material.001
f 6/7/6 1/11/6 9/12/6
f 7/3/8 6/7/8 9/12/8 10/9/8
f 9/12/10 1/16/10 12/17/10
f 10/9/12 9/12/12 12/17/12 13/14/12
usemtl Material.003
f 3/2/18 25/26/18 19/26/18 16/2/18
f 3/2/18 16/2/18 13/2/18 7/2/18
f 7/2/18 13/2/18 10/2/18
f 19/26/18 25/26/18 22/26/18
o Sphere.001
v 0.576494 0.000000 1.049880
v 0.491543 0.000000 0.844790
v 0.286453 0.000000 0.759838
v 0.081362 -0.000000 0.844790
v -0.003589 -0.000000 1.049880
v 0.491543 -0.145021 0.904859
v 0.286453 -0.205090 0.844790
v 0.081362 -0.145021 0.904859
v 0.491543 -0.205090 1.049880
v 0.286453 -0.290042 1.049880
v 0.081362 -0.205090 1.049880
v 0.491543 -0.145021 1.194901
v 0.286453 -0.205090 1.254971
v 0.081362 -0.145021 1.194901
v 0.491543 0.000000 1.254971
v 0.286453 0.000000 1.339922
v 0.081362 -0.000000 1.254971
v 0.491543 0.145021 1.194901
v 0.286453 0.205090 1.254971
v 0.081362 0.145021 1.194901
v 0.491543 0.205090 1.049880
v 0.286453 0.290042 1.049880
v 0.081362 0.205090 1.049880
v 0.491543 0.145021 0.904859
v 0.286453 0.205090 0.844790
v 0.081362 0.145021 0.904859
vn -0.3574 -0.3574 -0.8629
vn 0.9125 -0.1566 -0.3780
vn -0.9125 -0.1566 -0.3780
vn 0.3574 -0.3574 -0.8629
vn -0.3574 -0.8629 -0.3574
vn 0.9125 -0.3780 -0.1566
vn -0.9125 -0.3780 -0.1566
vn 0.3574 -0.8629 -0.3574
vn -0.3574 -0.8629 0.3574
vn 0.9125 -0.3780 0.1566
vn -0.9125 -0.3780 0.1566
vn 0.3574 -0.8629 0.3574
vn -0.3574 -0.3574 0.8629
vn 0.9125 -0.1566 0.3780
vn -0.9125 -0.1566 0.3780
vn 0.3574 -0.3574 0.8629
vn -0.3574 0.3574 0.8629
vn 0.9125 0.1566 0.3780
vn -0.9125 0.1566 0.3780
vn 0.3574 0.3574 0.8629
vn -0.3574 0.8629 0.3574
vn 0.9125 0.3780 0.1566
vn -0.9125 0.3780 0.1566
vn 0.3574 0.8629 0.3574
vn 0.3574 0.8629 -0.3574
vn -0.3574 0.8629 -0.3574
vn 0.9125 0.3780 -0.1566
vn -0.9125 0.3780 -0.1566
vn -0.9125 0.1566 -0.3780
vn 0.3574 0.3574 -0.8629
vn -0.3574 0.3574 -0.8629
vn 0.9125 0.1566 -0.3780
vt 0.750000 0.250000
vt 0.750000 0.500000
vt 0.625000 0.500000
vt 0.625000 0.250000
vt 0.750000 0.750000
vt 0.687500 1.000000
vt 0.625000 0.750000
vt 0.687500 0.000000
vt 0.500000 0.500000
vt 0.500000 0.250000
vt 0.562500 1.000000
vt 0.500000 0.750000
vt 0.562500 0.000000
vt 0.375000 0.500000
vt 0.375000 0.250000
vt 0.437500 1.000000
vt 0.375000 0.750000
vt 0.437500 0.000000
vt 0.250000 0.500000
vt 0.250000 0.250000
vt 0.312500 1.000000
vt 0.250000 0.750000
vt 0.312500 0.000000
vt 0.125000 0.500000
vt 0.125000 0.250000
vt 0.187500 1.000000
vt 0.125000 0.750000
vt 0.187500 0.000000
vt 0.000000 0.500000
vt 0.000000 0.250000
vt 0.062500 1.000000
vt 0.000000 0.750000
vt 0.062500 0.000000
vt 1.000000 0.500000
vt 1.000000 0.750000
vt 0.875000 0.750000
vt 0.875000 0.500000
vt 1.000000 0.250000
vt 0.875000 0.250000
vt 0.937500 1.000000
vt 0.937500 0.000000
vt 0.812500 0.000000
vt 0.812500 1.000000
s 0
f 30/42/32 29/43/32 33/44/32 34/45/32
f 28/46/33 27/47/33 32/48/33
f 31/49/34 30/42/34 34/45/34
f 29/43/35 28/46/35 32/48/35 33/44/35
f 34/45/36 33/44/36 36/50/36 37/51/36
f 32/48/37 27/52/37 35/53/37
f 31/54/38 34/45/38 37/51/38
f 33/44/39 32/48/39 35/53/39 36/50/39
f 37/51/40 36/50/40 39/55/40 40/56/40
f 35/53/41 27/57/41 38/58/41
f 31/59/42 37/51/42 40/56/42
f 36/50/43 35/53/43 38/58/43 39/55/43
f 40/56/44 39/55/44 42/60/44 43/61/44
f 38/58/45 27/62/45 41/63/45
f 31/64/46 40/56/46 43/61/46
f 39/55/47 38/58/47 41/63/47 42/60/47
f 43/61/48 42/60/48 45/65/48 46/66/48
f 41/63/49 27/67/49 44/68/49
f 31/69/50 43/61/50 46/66/50
f 42/60/51 41/63/51 44/68/51 45/65/51
f 46/66/52 45/65/52 48/70/52 49/71/52
f 44/68/53 27/72/53 47/73/53
f 31/74/54 46/66/54 49/71/54
f 45/65/55 44/68/55 47/73/55 48/70/55
f 48/75/56 47/76/56 50/77/56 51/78/56
f 49/79/57 48/75/57 51/78/57 52/80/57
f 47/76/58 27/81/58 50/77/58
f 31/82/59 49/79/59 52/80/59
f 31/83/60 52/80/60 30/42/60
f 51/78/61 50/77/61 28/46/61 29/43/61
f 52/80/62 51/78/62 29/43/62 30/42/62
f 50/77/63 27/84/63 28/46/63
o Sphere.002
v 0.576494 0.000000 -1.196472
v 0.491543 0.000000 -1.401563
v 0.286453 0.000000 -1.486514
v 0.081362 -0.000000 -1.401563
v -0.003589 -0.000000 -1.196472
v 0.491543 -0.145021 -1.341493
v 0.286453 -0.205090 -1.401563
v 0.081362 -0.145021 -1.341493
v 0.491543 -0.205090 -1.196472
v 0.286453 -0.290042 -1.196472
v 0.081362 -0.205090 -1.196472
v 0.491543 -0.145021 -1.051451
v 0.286453 -0.205090 -0.991382
v 0.081362 -0.145021 -1.051451
v 0.491543 0.000000 -0.991382
v 0.286453 0.000000 -0.906431
v 0.081362 -0.000000 -0.991382
v 0.491543 0.145021 -1.051451
v 0.286453 0.205090 -0.991382
v 0.081362 0.145021 -1.051451
v 0.491543 0.205090 -1.196472
v 0.286453 0.290042 -1.196472
v 0.081362 0.205090 -1.196472
v 0.491543 0.145021 -1.341493
v 0.286453 0.205090 -1.401563
v 0.081362 0.145021 -1.341493
vn -0.3574 -0.3574 -0.8629
vn 0.9125 -0.1566 -0.3780
vn -0.9125 -0.1566 -0.3780
vn 0.3574 -0.3574 -0.8629
vn -0.3574 -0.8629 -0.3574
vn 0.9125 -0.3780 -0.1566
vn -0.9125 -0.3780 -0.1566
vn 0.3574 -0.8629 -0.3574
vn -0.3574 -0.8629 0.3574
vn 0.9125 -0.3780 0.1566
vn -0.9125 -0.3780 0.1566
vn 0.3574 -0.8629 0.3574
vn -0.3574 -0.3574 0.8629
vn 0.9125 -0.1566 0.3780
vn -0.9125 -0.1566 0.3780
vn 0.3574 -0.3574 0.8629
vn -0.3574 0.3574 0.8629
vn 0.9125 0.1566 0.3780
vn -0.9125 0.1566 0.3780
vn 0.3574 0.3574 0.8629
vn -0.3574 0.8629 0.3574
vn 0.9125 0.3780 0.1566
vn -0.9125 0.3780 0.1566
vn 0.3574 0.8629 0.3574
vn 0.3574 0.8629 -0.3574
vn -0.3574 0.8629 -0.3574
vn 0.9125 0.3780 -0.1566
vn -0.9125 0.3780 -0.1566
vn -0.9125 0.1566 -0.3780
vn 0.3574 0.3574 -0.8629
vn -0.3574 0.3574 -0.8629
vn 0.9125 0.1566 -0.3780
vt 0.750000 0.250000
vt 0.750000 0.500000
vt 0.625000 0.500000
vt 0.625000 0.250000
vt 0.750000 0.750000
vt 0.687500 1.000000
vt 0.625000 0.750000
vt 0.687500 0.000000
vt 0.500000 0.500000
vt 0.500000 0.250000
vt 0.562500 1.000000
vt 0.500000 0.750000
vt 0.562500 0.000000
vt 0.375000 0.500000
vt 0.375000 0.250000
vt 0.437500 1.000000
vt 0.375000 0.750000
vt 0.437500 0.000000
vt 0.250000 0.500000
vt 0.250000 0.250000
vt 0.312500 1.000000
vt 0.250000 0.750000
vt 0.312500 0.000000
vt 0.125000 0.500000
vt 0.125000 0.250000
vt 0.187500 1.000000
vt 0.125000 0.750000
vt 0.187500 0.000000
vt 0.000000 0.500000
vt 0.000000 0.250000
vt 0.062500 1.000000
vt 0.000000 0.750000
vt 0.062500 0.000000
vt 1.000000 0.500000
vt 1.000000 0.750000
vt 0.875000 0.750000
vt 0.875000 0.500000
vt 1.000000 0.250000
vt 0.875000 0.250000
vt 0.937500 1.000000
vt 0.937500 0.000000
vt 0.812500 0.000000
vt 0.812500 1.000000
s 0
f 56/85/64 55/86/64 59/87/64 60/88/64
f 54/89/65 53/90/65 58/91/65
f 57/92/66 56/85/66 60/88/66
f 55/86/67 54/89/67 58/91/67 59/87/67
f 60/88/68 59/87/68 62/93/68 63/94/68
f 58/91/69 53/95/69 61/96/69
f 57/97/70 60/88/70 63/94/70
f 59/87/71 58/91/71 61/96/71 62/93/71
f 63/94/72 62/93/72 65/98/72 66/99/72
f 61/96/73 53/100/73 64/101/73
f 57/102/74 63/94/74 66/99/74
f 62/93/75 61/96/75 64/101/75 65/98/75
f 66/99/76 65/98/76 68/103/76 69/104/76
f 64/101/77 53/105/77 67/106/77
f 57/107/78 66/99/78 69/104/78
f 65/98/79 64/101/79 67/106/79 68/103/79
f 69/104/80 68/103/80 71/108/80 72/109/80
f 67/106/81 53/110/81 70/111/81
f 57/112/82 69/104/82 72/109/82
f 68/103/83 67/106/83 70/111/83 71/108/83
f 72/109/84 71/108/84 74/113/84 75/114/84
f 70/111/85 53/115/85 73/116/85
f 57/117/86 72/109/86 75/114/86
f 71/108/87 70/111/87 73/116/87 74/113/87
f 74/118/88 73/119/88 76/120/88 77/121/88
f 75/122/89 74/118/89 77/121/89 78/123/89
f 73/119/90 53/124/90 76/120/90
f 57/125/91 75/122/91 78/123/91
f 57/126/92 78/123/92 56/85/92
f 77/121/93 76/120/93 54/89/93 55/86/93
f 78/123/94 77/121/94 55/86/94 56/85/94
f 76/120/95 53/127/95 54/89/95
o Sphere.003
v -1.340255 0.000000 0.028237
v -1.425206 0.000000 -0.176853
v -1.630296 0.000000 -0.261805
v -1.835387 -0.000000 -0.176853
v -1.920338 -0.000000 0.028237
v -1.425206 -0.145021 -0.116784
v -1.630296 -0.205090 -0.176853
v -1.835387 -0.145021 -0.116784
v -1.425206 -0.205090 0.028237
v -1.630296 -0.290042 0.028237
v -1.835387 -0.205090 0.028237
v -1.425206 -0.145021 0.173258
v -1.630296 -0.205090 0.233327
v -1.835387 -0.145021 0.173258
v -1.425206 0.000000 0.233327
v -1.630296 0.000000 0.318279
v -1.835387 -0.000000 0.233327
v -1.425206 0.145021 0.173258
v -1.630296 0.205090 0.233327
v -1.835387 0.145021 0.173258
v -1.425206 0.205090 0.028237
v -1.630296 0.290042 0.028237
v -1.835387 0.205090 0.028237
v -1.425206 0.145021 -0.116784
v -1.630296 0.205090 -0.176853
v -1.835387 0.145021 -0.116784
vn -0.3574 -0.3574 -0.8629
vn 0.9125 -0.1566 -0.3780
vn -0.9125 -0.1566 -0.3780
vn 0.3574 -0.3574 -0.8629
vn -0.3574 -0.8629 -0.3574
vn 0.9125 -0.3780 -0.1566
vn -0.9125 -0.3780 -0.1566
vn 0.3574 -0.8629 -0.3574
vn -0.3574 -0.8629 0.3574
vn 0.9125 -0.3780 0.1566
vn -0.9125 -0.3780 0.1566
vn 0.3574 -0.8629 0.3574
vn -0.3574 -0.3574 0.8629
vn 0.9125 -0.1566 0.3780
vn -0.9125 -0.1566 0.3780
vn 0.3574 -0.3574 0.8629
vn -0.3574 0.3574 0.8629
vn 0.9125 0.1566 0.3780
vn -0.9125 0.1566 0.3780
vn 0.3574 0.3574 0.8629
vn -0.3574 0.8629 0.3574
vn 0.9125 0.3780 0.1566
vn -0.9125 0.3780 0.1566
vn 0.3574 0.8629 0.3574
vn 0.3574 0.8629 -0.3574
vn -0.3574 0.8629 -0.3574
vn 0.9125 0.3780 -0.1566
vn -0.9125 0.3780 -0.1566
vn -0.9125 0.1566 -0.3780
vn 0.3574 0.3574 -0.8629
vn -0.3574 0.3574 -0.8629
vn 0.9125 0.1566 -0.3780
vt 0.750000 0.250000
vt 0.750000 0.500000
vt 0.625000 0.500000
vt 0.625000 0.250000
vt 0.750000 0.750000
vt 0.687500 1.000000
vt 0.625000 0.750000
vt 0.687500 0.000000
vt 0.500000 0.500000
vt 0.500000 0.250000
vt 0.562500 1.000000
vt 0.500000 0.750000
vt 0.562500 0.000000
vt 0.375000 0.500000
vt 0.375000 0.250000
vt 0.437500 1.000000
vt 0.375000 0.750000
vt 0.437500 0.000000
vt 0.250000 0.500000
vt 0.250000 0.250000
vt 0.312500 1.000000
vt 0.250000 0.750000
vt 0.312500 0.000000
vt 0.125000 0.500000
vt 0.125000 0.250000
vt 0.187500 1.000000
vt 0.125000 0.750000
vt 0.187500 0.000000
vt 0.000000 0.500000
vt 0.000000 0.250000
vt 0.062500 1.000000
vt 0.000000 0.750000
vt 0.062500 0.000000
vt 1.000000 0.500000
vt 1.000000 0.750000
vt 0.875000 0.750000
vt 0.875000 0.500000
vt 1.000000 0.250000
vt 0.875000 0.250000
vt 0.937500 1.000000
vt 0.937500 0.000000
vt 0.812500 0.000000
vt 0.812500 1.000000
s 0
f 82/128/96 81/129/96 85/130/96 86/131/96
f 80/132/97 79/133/97 84/134/97
f 83/135/98 82/128/98 86/131/98
f 81/129/99 80/132/99 84/134/99 85/130/99
f 86/131/100 85/130/100 88/136/100 89/137/100
f 84/134/101 79/138/101 87/139/101
f 83/140/102 86/131/102 89/137/102
f 85/130/103 84/134/103 87/139/103 88/136/103
f 89/137/104 88/136/104 91/141/104 92/142/104
f 87/139/105 79/143/105 90/144/105
f 83/145/106 89/137/106 92/142/106
f 88/136/107 87/139/107 90/144/107 91/141/107
f 92/142/108 91/141/108 94/146/108 95/147/108
f 90/144/109 79/148/109 93/149/109
f 83/150/110 92/142/110 95/147/110
f 91/141/111 90/144/111 93/149/111 94/146/111
f 95/147/112 94/146/112 97/151/112 98/152/112
f 93/149/113 79/153/113 96/154/113
f 83/155/114 95/147/114 98/152/114
f 94/146/115 93/149/115 96/154/115 97/151/115
f 98/152/116 97/151/116 100/156/116 101/157/116
f 96/154/117 79/158/117 99/159/117
f 83/160/118 98/152/118 101/157/118
f 97/151/119 96/154/119 99/159/119 100/156/119
f 100/161/120 99/162/120 102/163/120 103/164/120
f 101/165/121 100/161/121 103/164/121 104/166/121
f 99/162/122 79/167/122 102/163/122
f 83/168/123 101/165/123 104/166/123
f 83/169/124 104/166/124 82/128/124
f 103/164/125 102/163/125 80/132/125 81/129/125
f 104/166/126 103/164/126 81/129/126 82/128/126
f 102/163/127 79/170/127 80/132/127
